HIERARCHY
ROOT hip
{
  OFFSET 5.51535 103.731 -2.80141
  CHANNELS 6 Xposition Yposition Zposition Zrotation Xrotation Yrotation
  JOINT abdomen
  {
    OFFSET 0 -1.186 -1.5018
    CHANNELS 6 Xposition Yposition Zposition Zrotation Xrotation Yrotation
    JOINT abdomen2
    {
      OFFSET 0 9.964 0.2134
      CHANNELS 6 Xposition Yposition Zposition Zrotation Xrotation Yrotation
      JOINT chest
      {
        OFFSET 0 13.134 -3.2573
        CHANNELS 6 Xposition Yposition Zposition Zrotation Xrotation Yrotation
        JOINT neck
        {
          OFFSET 0 20.686 -1.6905
          CHANNELS 6 Xposition Yposition Zposition Zrotation Xrotation Yrotation
          JOINT head
          {
            OFFSET 0 7.23801 -0.1237
            CHANNELS 6 Xposition Yposition Zposition Zrotation Xrotation Yrotation
            End Site
            {
              OFFSET 0 0 0
            }
          }
        }
        JOINT lCollar
        {
          OFFSET 1.7069 20.075 5.0056
          CHANNELS 6 Xposition Yposition Zposition Zrotation Xrotation Yrotation
          JOINT lShldr
          {
            OFFSET 13.6458 -0.0470195 -4.849
            CHANNELS 6 Xposition Yposition Zposition Zrotation Xrotation Yrotation
            JOINT lForeArm
            {
              OFFSET 28.3255 -0.97589 2.2888
              CHANNELS 6 Xposition Yposition Zposition Zrotation Xrotation Yrotation
              JOINT lHand
              {
                OFFSET 22.1583 -0.529998 10.8316
                CHANNELS 6 Xposition Yposition Zposition Zrotation Xrotation Yrotation
                JOINT lThumb1
                {
                  OFFSET 0.786 0.111997 2.5817
                  CHANNELS 6 Xposition Yposition Zposition Zrotation Xrotation Yrotation
                  JOINT lThumb2
                  {
                    OFFSET 0.360097 -0.877999 4.2331
                    CHANNELS 6 Xposition Yposition Zposition Zrotation Xrotation Yrotation
                    JOINT lThumb2_End
                    {
                      OFFSET 1.8127 -1.21601 2.2227
                      CHANNELS 6 Xposition Yposition Zposition Zrotation Xrotation Yrotation
                      End Site
                      {
                        OFFSET 0.0180981 -0.012195 0.0222007
                      }
                    }
                  }
                }
                JOINT lCarpal1
                {
                  OFFSET 0.9571 1.114 1.7695
                  CHANNELS 6 Xposition Yposition Zposition Zrotation Xrotation Yrotation
                  JOINT lIndex1
                  {
                    OFFSET 4.12461 0.486992 4.1451
                    CHANNELS 6 Xposition Yposition Zposition Zrotation Xrotation Yrotation
                    JOINT lIndex2
                    {
                      OFFSET 3.4052 -1.45401 2.7682
                      CHANNELS 6 Xposition Yposition Zposition Zrotation Xrotation Yrotation
                      JOINT lIndex2_End
                      {
                        OFFSET 1.45309 -1.79499 1.2713
                        CHANNELS 6 Xposition Yposition Zposition Zrotation Xrotation Yrotation
                        End Site
                        {
                          OFFSET 0.0144979 -0.0179083 0.0126995
                        }
                      }
                    }
                  }
                  JOINT lMid1
                  {
                    OFFSET 5.6954 0.209987 2.1184
                    CHANNELS 6 Xposition Yposition Zposition Zrotation Xrotation Yrotation
                    JOINT lMid2
                    {
                      OFFSET 3.9766 -1.53999 2.3863
                      CHANNELS 6 Xposition Yposition Zposition Zrotation Xrotation Yrotation
                      JOINT lMid2_End
                      {
                        OFFSET 1.4042 -1.926 1.125
                        CHANNELS 6 Xposition Yposition Zposition Zrotation Xrotation Yrotation
                        End Site
                        {
                          OFFSET 0.013999 -0.0193044 0.011301
                        }
                      }
                    }
                  }
                }
                JOINT lCarpal2
                {
                  OFFSET 2.0956 0.66 -0.3894
                  CHANNELS 6 Xposition Yposition Zposition Zrotation Xrotation Yrotation
                  JOINT lRing1
                  {
                    OFFSET 5.0395 -0.090013 2.4971
                    CHANNELS 6 Xposition Yposition Zposition Zrotation Xrotation Yrotation
                    JOINT lRing2
                    {
                      OFFSET 3.7921 -1.55199 1.4806
                      CHANNELS 6 Xposition Yposition Zposition Zrotation Xrotation Yrotation
                      JOINT lRing2_End
                      {
                        OFFSET 1.4655 -1.808 0.9609
                        CHANNELS 6 Xposition Yposition Zposition Zrotation Xrotation Yrotation
                        End Site
                        {
                          OFFSET 0.0147015 -0.0181014 0.00959957
                        }
                      }
                    }
                  }
                  JOINT lPinky1
                  {
                    OFFSET 4.9141 -1.269 0.3591
                    CHANNELS 6 Xposition Yposition Zposition Zrotation Xrotation Yrotation
                    JOINT lPinky2
                    {
                      OFFSET 3.1477 -1.685 0.8462
                      CHANNELS 6 Xposition Yposition Zposition Zrotation Xrotation Yrotation
                      JOINT lPinky2_End
                      {
                        OFFSET 0.805498 -1.58501 0.795499
                        CHANNELS 6 Xposition Yposition Zposition Zrotation Xrotation Yrotation
                        End Site
                        {
                          OFFSET 0.00809703 -0.0157944 0.00799848
                        }
                      }
                    }
                  }
                }
              }
            }
          }
        }
        JOINT rCollar
        {
          OFFSET -1.7069 20.075 5.0056
          CHANNELS 6 Xposition Yposition Zposition Zrotation Xrotation Yrotation
          JOINT rShldr
          {
            OFFSET -13.6458 -0.0470107 -4.849
            CHANNELS 6 Xposition Yposition Zposition Zrotation Xrotation Yrotation
            JOINT rForeArm
            {
              OFFSET -28.3255 -0.975895 2.2888
              CHANNELS 6 Xposition Yposition Zposition Zrotation Xrotation Yrotation
              JOINT rHand
              {
                OFFSET -22.1583 -0.530007 10.8316
                CHANNELS 6 Xposition Yposition Zposition Zrotation Xrotation Yrotation
                JOINT rThumb1
                {
                  OFFSET -0.785997 0.112005 2.5817
                  CHANNELS 6 Xposition Yposition Zposition Zrotation Xrotation Yrotation
                  JOINT rThumb2
                  {
                    OFFSET -0.360106 -0.877994 4.2331
                    CHANNELS 6 Xposition Yposition Zposition Zrotation Xrotation Yrotation
                    JOINT rThumb2_End
                    {
                      OFFSET -1.8127 -1.216 2.2227
                      CHANNELS 6 Xposition Yposition Zposition Zrotation Xrotation Yrotation
                      End Site
                      {
                        OFFSET -0.0180972 -0.0121973 0.0222005
                      }
                    }
                  }
                }
                JOINT rCarpal1
                {
                  OFFSET -0.9571 1.114 1.7695
                  CHANNELS 6 Xposition Yposition Zposition Zrotation Xrotation Yrotation
                  JOINT rIndex1
                  {
                    OFFSET -4.1246 0.487011 4.1451
                    CHANNELS 6 Xposition Yposition Zposition Zrotation Xrotation Yrotation
                    JOINT rIndex2
                    {
                      OFFSET -3.4052 -1.45401 2.7682
                      CHANNELS 6 Xposition Yposition Zposition Zrotation Xrotation Yrotation
                      JOINT rIndex2_End
                      {
                        OFFSET -1.4531 -1.795 1.2713
                        CHANNELS 6 Xposition Yposition Zposition Zrotation Xrotation Yrotation
                        End Site
                        {
                          OFFSET -0.0145077 -0.0180048 0.0127017
                        }
                      }
                    }
                  }
                  JOINT rMid1
                  {
                    OFFSET -5.6954 0.210002 2.1184
                    CHANNELS 6 Xposition Yposition Zposition Zrotation Xrotation Yrotation
                    JOINT rMid2
                    {
                      OFFSET -3.9766 -1.54 2.3863
                      CHANNELS 6 Xposition Yposition Zposition Zrotation Xrotation Yrotation
                      JOINT rMid2_End
                      {
                        OFFSET -1.4042 -1.926 1.125
                        CHANNELS 6 Xposition Yposition Zposition Zrotation Xrotation Yrotation
                        End Site
                        {
                          OFFSET -0.0139948 -0.0192916 0.0112994
                        }
                      }
                    }
                  }
                }
                JOINT rCarpal2
                {
                  OFFSET -2.0956 0.66 -0.3894
                  CHANNELS 6 Xposition Yposition Zposition Zrotation Xrotation Yrotation
                  JOINT rRing1
                  {
                    OFFSET -5.03951 -0.0899879 2.4971
                    CHANNELS 6 Xposition Yposition Zposition Zrotation Xrotation Yrotation
                    JOINT rRing2
                    {
                      OFFSET -3.7921 -1.55201 1.4806
                      CHANNELS 6 Xposition Yposition Zposition Zrotation Xrotation Yrotation
                      JOINT rRing2_End
                      {
                        OFFSET -1.4655 -1.808 0.960901
                        CHANNELS 6 Xposition Yposition Zposition Zrotation Xrotation Yrotation
                        End Site
                        {
                          OFFSET -0.0146934 -0.0180999 0.00959832
                        }
                      }
                    }
                  }
                  JOINT rPinky1
                  {
                    OFFSET -4.91411 -1.26899 0.359202
                    CHANNELS 6 Xposition Yposition Zposition Zrotation Xrotation Yrotation
                    JOINT rPinky2
                    {
                      OFFSET -3.14769 -1.68501 0.846199
                      CHANNELS 6 Xposition Yposition Zposition Zrotation Xrotation Yrotation
                      JOINT rPinky2_End
                      {
                        OFFSET -0.805498 -1.585 0.7955
                        CHANNELS 6 Xposition Yposition Zposition Zrotation Xrotation Yrotation
                        End Site
                        {
                          OFFSET -0.00810035 -0.0158035 0.00800029
                        }
                      }
                    }
                  }
                }
              }
            }
          }
        }
      }
    }
  }
  JOINT lThigh
  {
    OFFSET 8.367 -8.2066 0.5982
    CHANNELS 6 Xposition Yposition Zposition Zrotation Xrotation Yrotation
    JOINT lShin
    {
      OFFSET 2.1923 -43.463 -0.4932
      CHANNELS 6 Xposition Yposition Zposition Zrotation Xrotation Yrotation
      JOINT lFoot
      {
        OFFSET 0.733301 -45.8593 -2.6451
        CHANNELS 6 Xposition Yposition Zposition Zrotation Xrotation Yrotation
        End Site
        {
          OFFSET 2.6618 -4.2699 12.3931
        }
      }
    }
  }
  JOINT rThigh
  {
    OFFSET -8.367 -8.2066 0.5982
    CHANNELS 6 Xposition Yposition Zposition Zrotation Xrotation Yrotation
    JOINT rShin
    {
      OFFSET -2.1923 -43.463 -0.4931
      CHANNELS 6 Xposition Yposition Zposition Zrotation Xrotation Yrotation
      JOINT rFoot
      {
        OFFSET -0.733299 -45.8593 -2.6451
        CHANNELS 6 Xposition Yposition Zposition Zrotation Xrotation Yrotation
        End Site
        {
          OFFSET -2.6618 -4.2699 12.3931
        }
      }
    }
  }
}
MOTION
Frames:	4
Frame Time:	0.0333333
7.07383 103.699 0.866838 -5.55737 -0.266927 5.49541 4.18719e-007 -1.186 -1.5018 1.01552 -0.0060572 -1.237 -1.0386e-007 9.964 0.2134 2.03069 -0.0340146 -2.4737 -4.94946e-007 13.134 -3.2573 2.03069 -0.0340146 -2.47371 -3.28493e-006 20.6863 -1.69052 -0.101348 -0.0410319 -2.72837 2.30378e-007 7.23801 -0.1237 7.75763 0.43127 2.76998 1.7069 20.075 5.0056 3.14505 0.360743 3.39538 13.6458 -0.0470084 -4.849 -78.9827 2.00175 11.5124 28.3255 -0.975901 2.2888 -8.3511 -6.2245 -17.8978 22.1583 -0.529992 10.8316 -7.02616 -5.89558 5.70195 0.786005 0.111997 2.5817 -1.44063 -0.139287 -2.63685 0.360095 -0.878 4.2331 -1.4411 -0.139522 -2.63681 1.8127 -1.21601 2.2227 -1.44085 -0.139463 -2.63652 0.9571 1.114 1.7695 -4.96962e-017 1.59028e-015 -0 4.1246 0.486994 4.1451 4.78177 -2.21583 -1.87847 3.4052 -1.454 2.7682 4.78059 -2.21513 -1.878 1.4531 -1.79499 1.2713 4.77951 -2.21489 -1.87806 5.6954 0.209987 2.1184 4.68886 -2.40622 -1.86752 3.9766 -1.53999 2.3863 4.68935 -2.40698 -1.86791 1.4042 -1.926 1.125 4.68943 -2.40682 -1.86819 2.0956 0.66 -0.3894 -4.96962e-017 1.59028e-015 -0 5.03951 -0.0900105 2.4971 4.53185 -2.52226 -2.07485 3.7921 -1.55199 1.4806 4.53336 -2.52341 -2.07618 1.4655 -1.808 0.9609 4.53361 -2.52362 -2.07605 4.9141 -1.269 0.3591 4.47841 -2.66217 -2.01437 3.1477 -1.685 0.846201 4.48038 -2.6634 -2.01544 0.805497 -1.58501 0.7955 4.47986 -2.66326 -2.01522 -1.7069 20.075 5.0056 3.15815 -0.052068 3.4133 -13.6458 -0.0470183 -4.849 71.0059 -2.22664 -1.77582 -28.3255 -0.975906 2.2888 5.16215 8.4693 18.9202 -22.1583 -0.530012 10.8316 -7.95569 4.99869 6.05759 -0.786 0.112006 2.5817 -0.888065 0.807459 -2.7502 -0.360103 -0.877991 4.2331 -0.888538 0.807545 -2.7502 -1.81269 -1.216 2.2227 -0.888228 0.807406 -2.74992 -0.9571 1.114 1.7695 -3.97569e-015 1.59028e-015 -3.18055e-015 -4.12461 0.487012 4.1451 5.30222 1.7291 -0.822986 -3.4052 -1.45401 2.7682 5.30084 1.72857 -0.822718 -1.4531 -1.795 1.2713 5.29978 1.72836 -0.82297 -5.69541 0.210001 2.1184 5.23422 1.92973 -0.805808 -3.9766 -1.54 2.3863 5.23486 1.9304 -0.806106 -1.4042 -1.926 1.125 5.23495 1.93018 -0.806257 -2.0956 0.66 -0.3894 -3.97569e-015 1.59028e-015 -3.18055e-015 -5.03951 -0.0899869 2.4971 5.14131 2.08264 -1.01767 -3.7921 -1.55201 1.4806 5.14315 2.08357 -1.0188 -1.4655 -1.808 0.9609 5.14351 2.08376 -1.01853 -4.9141 -1.26899 0.359203 5.09462 2.22402 -0.950988 -3.1477 -1.68501 0.846198 5.09698 2.22494 -0.951632 -0.805498 -1.585 0.795499 5.09641 2.22485 -0.951596 8.367 -8.2066 0.5982 11.09 -3.94022 4.32973 2.1923 -43.463 -0.493201 -0.14846 7.58897 -0.331125 0.733299 -45.8593 -2.6451 -1.82739 -3.59929 -9.02524 -8.367 -8.2066 0.598201 8.72043 1.52246 4.27497 -2.19228 -43.4631 -0.493283 -0.622721 -2.65197 -0.124883 -0.733301 -45.8593 -2.6451 0.430778 0.122625 -9.08217 
7.05727 103.718 0.840191 -5.35216 -0.173064 5.18531 3.09197e-006 -1.186 -1.5018 0.938853 -0.0398884 -1.23241 -1.0307e-007 9.964 0.2134 1.87662 -0.0999069 -2.464 1.65262e-008 13.134 -3.2573 1.87662 -0.099907 -2.464 -1.88429e-007 20.686 -1.6905 -0.00393414 0.00194403 -2.59293 -3.58472e-007 7.238 -0.1237 7.93206 0.567632 3.04802 1.7069 20.075 5.0056 3.2599 0.301319 3.33395 13.6458 -0.0470208 -4.849 -77.8057 1.97269 10.4786 28.3255 -0.97589 2.2888 -8.48826 -6.16845 -18.5897 22.1583 -0.529992 10.8316 -6.76362 -6.23239 5.29807 0.786003 0.111997 2.5817 -1.44063 -0.139298 -2.63686 0.360101 -0.878 4.2331 -1.4411 -0.139522 -2.6368 1.8127 -1.21601 2.2227 -1.44076 -0.139449 -2.63632 0.9571 1.114 1.7695 -1.98785e-016 1.59028e-015 -3.97569e-016 4.1246 0.486991 4.1451 4.97365 -2.27049 -1.91213 3.4052 -1.454 2.7682 4.92705 -2.28594 -1.93303 1.4531 -1.79499 1.2713 4.93619 -2.29064 -1.93692 5.6954 0.209986 2.1184 4.8676 -2.45116 -1.91304 3.9766 -1.53999 2.3863 4.84914 -2.49011 -1.92645 1.4042 -1.926 1.125 4.84299 -2.48882 -1.9265 2.0956 0.66 -0.3894 -1.98785e-016 1.59028e-015 -3.97569e-016 5.0395 -0.0900133 2.4971 4.7037 -2.56902 -2.13792 3.7921 -1.55199 1.4806 4.68157 -2.60946 -2.14132 1.4655 -1.808 0.9609 4.68182 -2.60967 -2.14118 4.9141 -1.269 0.359101 4.64905 -2.71356 -2.0767 3.1477 -1.685 0.846201 4.62677 -2.75394 -2.07844 0.8055 -1.58501 0.795499 4.62627 -2.75381 -2.07823 -1.7069 20.075 5.0056 3.19768 -0.0476611 3.29092 -13.6458 -0.0470015 -4.849 70.3719 -2.99365 -2.18856 -28.3255 -0.975877 2.2888 5.41697 7.24458 19.4402 -22.1583 -0.530009 10.8316 -8.04793 4.91101 6.1066 -0.785999 0.112006 2.5817 -0.888042 0.807426 -2.7502 -0.360107 -0.877993 4.2331 -0.88853 0.80755 -2.75022 -1.81269 -1.216 2.2227 -0.888238 0.807407 -2.74992 -0.9571 1.114 1.7695 -0 -1.59028e-015 -0 -4.1246 0.487012 4.1451 5.30224 1.7291 -0.822987 -3.4052 -1.45401 2.7682 5.30087 1.72857 -0.822714 -1.45309 -1.79499 1.2713 5.29977 1.72836 -0.822971 -5.69541 0.210002 2.1184 5.23421 1.92975 -0.8058 -3.9766 -1.54 2.3863 5.23486 1.93039 -0.806099 -1.4042 -1.926 1.125 5.23491 1.9302 -0.806257 -2.0956 0.66 -0.3894 -0 -1.59028e-015 -0 -5.03951 -0.0899865 2.4971 5.14132 2.08264 -1.01767 -3.7921 -1.55201 1.4806 5.14316 2.08357 -1.0188 -1.4655 -1.808 0.960901 5.14351 2.08377 -1.01853 -4.91411 -1.26899 0.359202 5.09463 2.22403 -0.950983 -3.1477 -1.68501 0.846198 5.09697 2.22494 -0.951628 -0.805498 -1.585 0.795499 5.09641 2.22485 -0.95159 8.367 -8.2066 0.5982 10.816 -3.70974 4.32629 2.1923 -43.463 -0.4932 -0.0970347 7.12852 -0.131091 0.733302 -45.8593 -2.6451 -1.82826 -3.39444 -8.91368 -8.36702 -8.2066 0.598201 8.46609 1.3001 4.22087 -2.19234 -43.463 -0.492814 -0.516772 -2.41084 0.0413738 -0.7333 -45.8593 -2.6451 0.426728 0.0568508 -8.9208 
7.04652 103.742 0.744296 -5.08108 -0.0665897 4.90852 1.321e-007 -1.18599 -1.5018 0.854684 -0.090649 -1.2186 -6.09901e-008 9.964 0.2134 1.70726 -0.19942 -2.4357 1.45982e-007 13.134 -3.2573 1.70726 -0.19942 -2.4357 2.27089e-008 20.686 -1.69051 0.0133961 0.0516291 -2.62088 -1.45351e-007 7.23801 -0.1237 8.16886 0.810152 3.42878 1.7069 20.075 5.0056 3.58087 0.133396 3.16062 13.6458 -0.0470056 -4.84901 -76.7602 1.95343 9.5839 28.3255 -0.975901 2.2888 -8.93298 -6.28113 -20.5487 22.1583 -0.529985 10.8316 -6.03955 -7.18806 4.16764 0.786005 0.111996 2.5817 -1.44064 -0.139303 -2.63686 0.3601 -0.878001 4.2331 -1.44113 -0.139509 -2.63679 1.8127 -1.21601 2.2227 -1.44064 -0.139444 -2.63611 0.9571 1.114 1.7695 -1.98785e-016 0 -7.95139e-016 4.1246 0.486993 4.1451 5.50389 -2.42288 -2.00351 3.4052 -1.454 2.7682 5.33165 -2.48242 -2.08421 1.4531 -1.79499 1.2713 5.36898 -2.50091 -2.09857 5.69541 0.209986 2.1184 5.36164 -2.57655 -2.03745 3.9766 -1.53999 2.3863 5.26709 -2.71651 -2.0863 1.4042 -1.926 1.125 5.26719 -2.71635 -2.0866 2.0956 0.66 -0.3894 -1.98785e-016 0 -7.95139e-016 5.0395 -0.0900124 2.4971 5.17881 -2.69951 -2.3109 3.7921 -1.55199 1.4806 5.09084 -2.84822 -2.32028 1.4655 -1.808 0.960901 5.09108 -2.8484 -2.32014 4.9141 -1.269 0.359102 5.12073 -2.85673 -2.24765 3.1477 -1.685 0.846201 5.03111 -3.00511 -2.25141 0.805495 -1.58501 0.7955 5.03061 -3.00496 -2.25121 -1.7069 20.075 5.0056 3.31075 -0.0359932 2.94646 -13.6458 -0.0470046 -4.849 69.4869 -3.80183 -2.59368 -28.3255 -0.975885 2.2888 5.95982 6.24865 20.8099 -22.1583 -0.530004 10.8316 -8.3074 4.64745 6.24811 -0.786 0.112005 2.5817 -0.888039 0.807391 -2.7502 -0.360108 -0.877994 4.2331 -0.888544 0.807568 -2.75019 -1.8127 -1.216 2.2227 -0.88824 0.807414 -2.74994 -0.9571 1.114 1.7695 -1.19271e-015 -3.97569e-015 -3.18055e-015 -4.1246 0.487013 4.1451 5.30225 1.7291 -0.82299 -3.4052 -1.45401 2.7682 5.30083 1.72858 -0.822717 -1.4531 -1.795 1.2713 5.29979 1.72838 -0.822976 -5.6954 0.210003 2.1184 5.23423 1.92976 -0.805812 -3.9766 -1.54 2.3863 5.23488 1.93042 -0.806104 -1.4042 -1.926 1.125 5.23493 1.93019 -0.806254 -2.0956 0.66 -0.3894 -1.19271e-015 -3.97569e-015 -3.18055e-015 -5.03951 -0.0899854 2.4971 5.14132 2.08266 -1.01768 -3.7921 -1.55201 1.4806 5.14315 2.08358 -1.0188 -1.4655 -1.808 0.960899 5.14352 2.08377 -1.01853 -4.91411 -1.26899 0.359201 5.09465 2.22405 -0.951009 -3.14769 -1.68501 0.846199 5.09696 2.22495 -0.951631 -0.8055 -1.585 0.7955 5.09642 2.22486 -0.951597 8.367 -8.20659 0.5982 10.4514 -3.50173 4.29755 2.1923 -43.463 -0.493201 -0.0337984 6.58543 0.112973 0.733298 -45.8593 -2.6451 -1.81755 -3.09864 -8.83273 -8.367 -8.2066 0.598201 8.11352 0.913368 4.03301 -2.19233 -43.4631 -0.492801 -0.37758 -1.96325 0.228449 -0.733303 -45.8594 -2.6451 0.477171 -0.0807933 -8.69581 
7.04191 103.77 0.592189 -4.7618 0.044935 4.65305 -5.70521e-007 -1.18599 -1.5018 0.76512 -0.154927 -1.1988 -7.47619e-011 9.964 0.2134 1.52683 -0.32584 -2.39543 -4.81895e-007 13.134 -3.2573 1.52683 -0.32584 -2.39543 -5.07233e-006 20.6863 -1.69052 -0.0355427 0.108203 -2.77476 -2.49086e-007 7.23801 -0.1237 8.45527 1.13916 3.89364 1.7069 20.075 5.0056 4.07032 -0.127884 2.89322 13.6458 -0.0470071 -4.849 -75.8344 1.93413 8.82115 28.3255 -0.975889 2.2888 -9.67852 -6.52652 -23.5596 22.1583 -0.529993 10.8316 -4.96178 -8.6833 2.43471 0.786002 0.111998 2.5817 -1.44065 -0.139331 -2.63686 0.360099 -0.878 4.2331 -1.44109 -0.139521 -2.63679 1.8127 -1.21601 2.2227 -1.44052 -0.139431 -2.6359 0.9571 1.114 1.7695 3.97569e-016 1.59028e-015 1.59028e-015 4.12461 0.486995 4.1451 6.30401 -2.65665 -2.13682 3.4052 -1.454 2.7682 5.94202 -2.78127 -2.31005 1.4531 -1.79499 1.2713 6.02177 -2.82082 -2.3398 5.6954 0.209986 2.1184 6.10753 -2.7692 -2.22137 3.9766 -1.53999 2.3863 5.90684 -3.06245 -2.32497 1.4042 -1.926 1.125 5.90692 -3.06227 -2.32529 2.0956 0.66 -0.3894 3.97569e-016 1.59028e-015 1.59028e-015 5.0395 -0.0900104 2.4971 5.89627 -2.89979 -2.56841 3.7921 -1.55199 1.4806 5.70782 -3.21127 -2.58745 1.4655 -1.808 0.9609 5.70809 -3.21147 -2.58731 4.9141 -1.269 0.359101 5.8329 -3.07616 -2.50212 3.1477 -1.685 0.846201 5.64064 -3.3868 -2.50944 0.805497 -1.585 0.795501 5.64012 -3.38665 -2.50922 -1.7069 20.075 5.0056 3.4881 -0.0194103 2.41546 -13.6458 -0.0470061 -4.849 68.4128 -4.62745 -2.99763 -28.3255 -0.975892 2.2888 6.75652 5.44926 22.8947 -22.1583 -0.530009 10.8316 -8.70793 4.20677 6.47291 -0.786001 0.112005 2.5817 -0.888027 0.807378 -2.7502 -0.360107 -0.877994 4.23311 -0.88858 0.807578 -2.75017 -1.8127 -1.216 2.2227 -0.888253 0.80741 -2.74993 -0.9571 1.114 1.7695 -4.17448e-015 3.97569e-016 -6.36111e-015 -4.12461 0.487011 4.1451 5.30223 1.72911 -0.822983 -3.4052 -1.454 2.7682 5.30082 1.72859 -0.822715 -1.4531 -1.795 1.2713 5.29976 1.72839 -0.82296 -5.6954 0.210004 2.1184 5.2342 1.92976 -0.805805 -3.97661 -1.54 2.3863 5.23487 1.93041 -0.806102 -1.4042 -1.926 1.125 5.23494 1.93019 -0.806236 -2.0956 0.66 -0.3894 -4.17448e-015 3.97569e-016 -6.36111e-015 -5.03951 -0.089987 2.4971 5.1413 2.08267 -1.01767 -3.7921 -1.55201 1.4806 5.14313 2.08358 -1.0188 -1.4655 -1.808 0.9609 5.14352 2.08377 -1.01852 -4.91411 -1.26899 0.359202 5.09461 2.22407 -0.950994 -3.14769 -1.68501 0.8462 5.09694 2.22494 -0.951623 -0.805503 -1.585 0.795499 5.0964 2.22487 -0.951577 8.367 -8.20659 0.5982 10.0204 -3.31251 4.2474 2.1923 -43.463 -0.493201 0.0382756 5.98747 0.391059 0.733302 -45.8593 -2.6451 -1.79553 -2.73597 -8.77191 -8.36699 -8.2066 0.598199 7.68313 0.458871 3.72908 -2.19235 -43.4631 -0.492634 -0.215414 -1.46763 0.43803 -0.7333 -45.8593 -2.6451 0.55745 -0.21229 -8.41255 
